<?xml version="1.0" encoding="UTF-8" standalone="no"?>
<svg
   xmlns:dc="http://purl.org/dc/elements/1.1/"
   xmlns:cc="http://creativecommons.org/ns#"
   xmlns:rdf="http://www.w3.org/1999/02/22-rdf-syntax-ns#"
   xmlns:svg="http://www.w3.org/2000/svg"
   xmlns="http://www.w3.org/2000/svg"
   id="svg10"
   version="1.1"
   viewBox="0 0 20 5">
  <metadata
     id="metadata14">
    <rdf:RDF>
      <cc:Work
         rdf:about="">
        <dc:format>image/svg+xml</dc:format>
        <dc:type
           rdf:resource="http://purl.org/dc/dcmitype/StillImage" />
        <dc:title></dc:title>
      </cc:Work>
    </rdf:RDF>
  </metadata>
  <defs
     id="defs4">
    <style
       id="style2">
      .cls-1 {
        fill: #222;
      }
    </style>
  </defs>
  <path
     id="Rectangle_143"
     d="M 2.5 0 C 1.115 0 1.2421298e-017 1.115 0 2.5 C 0 3.885 1.115 5 2.5 5 C 3.885 5 5 3.885 5 2.5 C 5 1.115 3.885 1.2421298e-017 2.5 0 z M 10 0 C 8.615 0 7.5 1.115 7.5 2.5 C 7.5 3.885 8.615 5 10 5 C 11.385 5 12.5 3.885 12.5 2.5 C 12.5 1.115 11.385 1.2421298e-017 10 0 z M 17.5 0 C 16.115 0 15 1.115 15 2.5 C 15 3.885 16.115 5 17.5 5 C 18.885 5 20 3.885 20 2.5 C 20 1.115 18.885 6.2106489e-018 17.5 0 z "
     style="fill:#000000;fill-opacity:1" />
</svg>
