<?xml version="1.0" encoding="UTF-8" standalone="no"?>
<svg
   xmlns:dc="http://purl.org/dc/elements/1.1/"
   xmlns:cc="http://creativecommons.org/ns#"
   xmlns:rdf="http://www.w3.org/1999/02/22-rdf-syntax-ns#"
   xmlns:svg="http://www.w3.org/2000/svg"
   xmlns="http://www.w3.org/2000/svg"
   version="1.1"
   viewBox="0 0 16 16"
   id="insta">
  <metadata
     id="metadata10">
    <rdf:RDF>
      <cc:Work
         rdf:about="">
        <dc:format>image/svg+xml</dc:format>
        <dc:type
           rdf:resource="http://purl.org/dc/dcmitype/StillImage" />
        <dc:title></dc:title>
      </cc:Work>
    </rdf:RDF>
  </metadata>
  <defs
     id="defs8" />
  <path
     id="path14"
     d="M 8 0 C 5.827 0 5.5542187 0.009828125 4.6992188 0.048828125 A 5.87 5.87 0 0 0 2.7578125 0.41992188 A 3.922 3.922 0 0 0 1.3417969 1.34375 A 3.922 3.922 0 0 0 0.41796875 2.7597656 A 5.873 5.873 0 0 0 0.046875 4.7011719 C 0.007875 5.5541719 -0.001953125 5.8279531 -0.001953125 8.0019531 C -0.001953125 10.175953 0.007875 10.447734 0.046875 11.302734 A 5.873 5.873 0 0 0 0.41796875 13.244141 A 3.922 3.922 0 0 0 1.3417969 14.660156 A 3.922 3.922 0 0 0 2.7578125 15.583984 A 5.871 5.871 0 0 0 4.6992188 15.955078 C 5.5522187 15.994078 5.826 16.003906 8 16.003906 C 10.174 16.003906 10.445781 15.994078 11.300781 15.955078 A 5.871 5.871 0 0 0 13.242188 15.583984 A 3.923 3.923 0 0 0 14.658203 14.660156 A 3.922 3.922 0 0 0 15.582031 13.244141 A 5.872 5.872 0 0 0 15.953125 11.302734 C 15.992125 10.449734 16.001953 10.175953 16.001953 8.0019531 C 16.001953 5.8279531 15.992125 5.5561719 15.953125 4.7011719 A 5.872 5.872 0 0 0 15.582031 2.7597656 A 3.922 3.922 0 0 0 14.658203 1.34375 A 3.922 3.922 0 0 0 13.242188 0.41992188 A 5.87 5.87 0 0 0 11.300781 0.048828125 C 10.445781 0.009828125 10.173 0 8 0 z M 8 1.4414062 C 10.136 1.4414062 10.388422 1.4492813 11.232422 1.4882812 A 4.426 4.426 0 0 1 12.71875 1.7636719 A 2.478 2.478 0 0 1 13.638672 2.3632812 A 2.479 2.479 0 0 1 14.238281 3.2832031 A 4.426 4.426 0 0 1 14.513672 4.7695312 C 14.551672 5.6135313 14.560547 5.8689531 14.560547 8.0019531 C 14.560547 10.134953 14.552672 10.390375 14.513672 11.234375 A 4.427 4.427 0 0 1 14.238281 12.720703 A 2.479 2.479 0 0 1 13.638672 13.640625 A 2.478 2.478 0 0 1 12.71875 14.240234 A 4.426 4.426 0 0 1 11.232422 14.515625 C 10.389422 14.553625 10.133 14.5625 8 14.5625 C 5.867 14.5625 5.6115781 14.554625 4.7675781 14.515625 A 4.426 4.426 0 0 1 3.28125 14.240234 A 2.478 2.478 0 0 1 2.3613281 13.640625 A 2.479 2.479 0 0 1 1.7617188 12.720703 A 4.427 4.427 0 0 1 1.4863281 11.234375 C 1.4483281 10.390375 1.4394531 10.134953 1.4394531 8.0019531 C 1.4394531 5.8689531 1.4473281 5.6135312 1.4863281 4.7695312 A 4.427 4.427 0 0 1 1.7617188 3.2832031 A 2.479 2.479 0 0 1 2.3613281 2.3632812 A 2.478 2.478 0 0 1 3.28125 1.7636719 A 4.424 4.424 0 0 1 4.7675781 1.4882812 C 5.6115781 1.4502812 5.867 1.4414062 8 1.4414062 z M 12.271484 2.7695312 A 0.96 0.96 0 0 0 11.310547 3.7304688 A 0.96 0.96 0 0 0 12.271484 4.6894531 A 0.96 0.96 0 0 0 13.230469 3.7304688 A 0.96 0.96 0 0 0 12.271484 2.7695312 z M 8 3.8964844 A 4.108 4.108 0 0 0 3.8925781 8.0039062 A 4.108 4.108 0 0 0 8 12.111328 A 4.108 4.108 0 0 0 12.107422 8.0039062 A 4.108 4.108 0 0 0 8 3.8964844 z M 8 5.3378906 A 2.667 2.667 0 0 1 10.667969 8.0039062 A 2.667 2.667 0 0 1 8 10.671875 A 2.667 2.667 0 0 1 5.3320312 8.0039062 A 2.667 2.667 0 0 1 8 5.3378906 z " />
</svg>
