<svg xmlns="http://www.w3.org/2000/svg" viewBox="0 0 18.75 15.235">
  <path id="tw" d="M80.9,113.686A10.871,10.871,0,0,0,91.842,102.74c0-.167,0-.332-.011-.5a7.827,7.827,0,0,0,1.919-1.991,7.678,7.678,0,0,1-2.21.605,3.86,3.86,0,0,0,1.691-2.128,7.709,7.709,0,0,1-2.443.934,3.851,3.851,0,0,0-6.556,3.508,10.922,10.922,0,0,1-7.928-4.019,3.85,3.85,0,0,0,1.191,5.135,3.818,3.818,0,0,1-1.746-.481v.049a3.848,3.848,0,0,0,3.086,3.771,3.841,3.841,0,0,1-1.737.066,3.851,3.851,0,0,0,3.594,2.672,7.719,7.719,0,0,1-4.778,1.65,7.83,7.83,0,0,1-.916-.055,10.891,10.891,0,0,0,5.9,1.725" transform="translate(-75 -98.45)"/>
</svg>
