<?xml version="1.0" encoding="UTF-8" standalone="no"?>
<svg
   xmlns:dc="http://purl.org/dc/elements/1.1/"
   xmlns:cc="http://creativecommons.org/ns#"
   xmlns:rdf="http://www.w3.org/1999/02/22-rdf-syntax-ns#"
   xmlns:svg="http://www.w3.org/2000/svg"
   xmlns="http://www.w3.org/2000/svg"
   xmlns:sodipodi="http://sodipodi.sourceforge.net/DTD/sodipodi-0.dtd"
   xmlns:inkscape="http://www.inkscape.org/namespaces/inkscape"
   viewBox="0 0 16.055 9.4"
   version="1.1"
   id="svg3"
   sodipodi:docname="vk.svg"
   inkscape:version="0.92.1 r15371">
  <metadata
     id="metadata9">
    <rdf:RDF>
      <cc:Work
         rdf:about="">
        <dc:format>image/svg+xml</dc:format>
        <dc:type
           rdf:resource="http://purl.org/dc/dcmitype/StillImage" />
      </cc:Work>
    </rdf:RDF>
  </metadata>
  <defs
     id="defs7" />
  <sodipodi:namedview
     pagecolor="#ffffff"
     bordercolor="#666666"
     borderopacity="1"
     objecttolerance="10"
     gridtolerance="10"
     guidetolerance="10"
     inkscape:pageopacity="0"
     inkscape:pageshadow="2"
     inkscape:window-width="1920"
     inkscape:window-height="1017"
     id="namedview5"
     showgrid="false"
     inkscape:zoom="19.931485"
     inkscape:cx="8.0275002"
     inkscape:cy="4.6999998"
     inkscape:window-x="-8"
     inkscape:window-y="-8"
     inkscape:window-maximized="1"
     inkscape:current-layer="svg3" />
  <path
     id="vk"
     d="M113.891-371.585a21.888,21.888,0,0,0,2.326-3.964c.07-.35-.084-.546-.448-.546h-1.835a.67.67,0,0,0-.7.448,16.625,16.625,0,0,1-2.2,3.446c-.388.431-.585.56-.8.56-.173,0-.252-.144-.252-.532v-3.4c0-.476-.056-.616-.448-.616h-2.942a.322.322,0,0,0-.364.308c0,.449.686.55.686,1.765v2.508c0,.5-.028.7-.266.7-.63,0-2.129-2.171-2.97-4.637-.168-.5-.35-.644-.827-.644h-1.835a.438.438,0,0,0-.462.448c0,.49.574,2.76,2.83,5.8a6.958,6.958,0,0,0,5.3,3.152c1.093,0,1.359-.182,1.359-.644v-1.569c0-.392.154-.56.378-.56.252,0,.7.081,1.737,1.107,1.233,1.177,1.317,1.667,1.989,1.667H116.2c.21,0,.406-.1.406-.448a4.971,4.971,0,0,0-1.527-2.269c-.378-.5-.995-1.051-1.191-1.3-.28-.294-.2-.462,0-.771"
     transform="translate(-100.555 376.194)"
     style="fill:#000000;fill-opacity:1;stroke:none" />
</svg>
