<svg xmlns="http://www.w3.org/2000/svg" xmlns:xlink="http://www.w3.org/1999/xlink"><symbol id="sprite-arrow" viewBox="0 0 15 15"><path d="M0 10V9l7.5-9L15 9v1h-5v5H5v-5z" data-name="Path 65"/></symbol><use xlink:href="#sprite-arrow" width="15" height="15" y="0"/><view id="sprite-arrow-view" viewBox="0 0 15 15"/><symbol id="sprite-bell" viewBox="0 0 16.132 18"><path d="M8.066 0c-.499 0-.862.29-1.068.576-2.862.43-5.066 2.967-4.932 5.969v3.682c-.13.208-.553.884-1.058 1.783a17 17 0 0 0-.756 1.465c-.096.22-.176.402-.227.67-.025.133-.074.29.026.609.05.16.166.373.37.53.206.155.463.216.645.216H5.79l.031.26s.06.534.358 1.08S7.105 18 8.066 18c.962 0 1.59-.614 1.89-1.16.297-.546.357-1.08.357-1.08l.03-.26h4.723c.183 0 .44-.06.645-.217.205-.156.32-.37.37-.53.099-.318.052-.475.026-.608-.05-.268-.13-.45-.226-.67a17 17 0 0 0-.756-1.465c-.505-.899-.93-1.575-1.059-1.783V6.5l-.002.045c.135-3.003-2.069-5.54-4.931-5.969C8.927.29 8.566 0 8.066 0m-.045 2.498.045.004.045-.004a3.77 3.77 0 0 1 3.955 3.957v4.332l.153.242s.617.989 1.164 1.961c.108.193.167.328.263.51H2.486c.097-.182.156-.317.264-.51a58 58 0 0 1 1.164-1.96l.152-.243V6.48l-.002-.024a3.774 3.774 0 0 1 3.957-3.957zM7 16.199h2.13c-.029.076-.01.081-.054.16-.193.355-.44.641-1.01.641s-.818-.286-1.011-.64c-.044-.08-.025-.085-.055-.16z" color="#000" font-family="sans-serif" font-weight="400" overflow="visible" style="line-height:normal;font-variant-ligatures:normal;font-variant-position:normal;font-variant-caps:normal;font-variant-numeric:normal;font-variant-alternates:normal;font-feature-settings:normal;text-indent:0;text-align:start;text-decoration-line:none;text-decoration-style:solid;text-decoration-color:#000;text-transform:none;text-orientation:mixed;white-space:normal;shape-padding:0;isolation:auto;mix-blend-mode:normal;solid-color:#000;solid-opacity:1"/></symbol><use xlink:href="#sprite-bell" width="16.132" height="18" y="15"/><view id="sprite-bell-view" viewBox="0 15 16.132 18"/><symbol id="sprite-close" viewBox="0 0 15 15"><path d="M15 1.5 13.5 0l-6 6-6-6L0 1.5l6 6-6 6L1.5 15l6-6 6 6 1.5-1.5-6-6z"/></symbol><use xlink:href="#sprite-close" width="15" height="15" y="33"/><view id="sprite-close-view" viewBox="0 33 15 15"/><symbol id="sprite-collapse" viewBox="0 0 20 20"><path d="m4 1 6 6 6-6M4 19l6-6 6 6"/></symbol><use xlink:href="#sprite-collapse" width="20" height="20" y="48"/><view id="sprite-collapse-view" viewBox="0 48 20 20"/><symbol id="sprite-comments" viewBox="0 0 15 15"><path d="M0 0h15v15h-1l-5-3H0z" data-name="Path 67"/></symbol><use xlink:href="#sprite-comments" width="15" height="15" y="68"/><view id="sprite-comments-view" viewBox="0 68 15 15"/><symbol id="sprite-dots" viewBox="0 0 20 5"><path d="M2.5 0A2.495 2.495 0 0 0 0 2.5C0 3.885 1.115 5 2.5 5S5 3.885 5 2.5 3.885 0 2.5 0M10 0a2.495 2.495 0 0 0-2.5 2.5C7.5 3.885 8.615 5 10 5s2.5-1.115 2.5-2.5S11.385 0 10 0m7.5 0A2.495 2.495 0 0 0 15 2.5C15 3.885 16.115 5 17.5 5S20 3.885 20 2.5 18.885 0 17.5 0"/></symbol><use xlink:href="#sprite-dots" width="20" height="5" y="83"/><view id="sprite-dots-view" viewBox="0 83 20 5"/><symbol id="sprite-fb" viewBox="0 0 8.764 16.854"><path d="M5.688 16.854V9.166h2.584l.387-3H5.688V4.253c0-.867.241-1.459 1.487-1.459h1.589V.114a21 21 0 0 0-2.315-.118A3.612 3.612 0 0 0 2.59 3.957v2.21H-.001v3H2.59v7.688z"/></symbol><use xlink:href="#sprite-fb" width="8.764" height="16.854" y="88"/><view id="sprite-fb-view" viewBox="0 88 8.764 16.854"/><symbol id="sprite-in" viewBox="0 0 16 16"><path d="M8 0C5.827 0 5.554.01 4.7.049a5.9 5.9 0 0 0-1.942.37 3.9 3.9 0 0 0-1.416.925A3.9 3.9 0 0 0 .418 2.76 5.9 5.9 0 0 0 .047 4.7c-.04.853-.049 1.127-.049 3.301s.01 2.446.049 3.3a5.9 5.9 0 0 0 .371 1.942 3.9 3.9 0 0 0 .924 1.416 3.9 3.9 0 0 0 1.416.924 5.9 5.9 0 0 0 1.941.371c.853.04 1.127.049 3.301.049s2.446-.01 3.3-.049a5.9 5.9 0 0 0 1.942-.371 3.9 3.9 0 0 0 1.416-.924 3.9 3.9 0 0 0 .924-1.416 5.9 5.9 0 0 0 .371-1.941c.04-.853.049-1.127.049-3.301s-.01-2.446-.049-3.3a5.9 5.9 0 0 0-.371-1.942 3.9 3.9 0 0 0-.924-1.416A3.9 3.9 0 0 0 13.242.42a5.9 5.9 0 0 0-1.941-.371C10.446.009 10.173 0 8 0m0 1.441c2.136 0 2.388.008 3.232.047a4.4 4.4 0 0 1 1.487.276 2.5 2.5 0 0 1 .92.6 2.5 2.5 0 0 1 .6.92 4.4 4.4 0 0 1 .275 1.486c.038.844.047 1.099.047 3.232s-.008 2.388-.047 3.232a4.4 4.4 0 0 1-.276 1.487 2.5 2.5 0 0 1-.6.92 2.5 2.5 0 0 1-.92.6 4.4 4.4 0 0 1-1.486.275c-.843.038-1.099.046-3.232.046s-2.388-.007-3.232-.046a4.4 4.4 0 0 1-1.487-.276 2.5 2.5 0 0 1-.92-.6 2.5 2.5 0 0 1-.6-.92 4.4 4.4 0 0 1-.275-1.486c-.038-.844-.047-1.099-.047-3.232s.008-2.388.047-3.232a4.4 4.4 0 0 1 .276-1.487 2.5 2.5 0 0 1 .6-.92 2.5 2.5 0 0 1 .92-.6 4.4 4.4 0 0 1 1.486-.275C5.612 1.45 5.867 1.441 8 1.441m4.271 1.329a.96.96 0 0 0-.96.96.96.96 0 0 0 .96.96.96.96 0 0 0 .96-.96.96.96 0 0 0-.96-.96M8 3.896a4.11 4.11 0 0 0-4.107 4.108A4.11 4.11 0 0 0 8 12.11a4.11 4.11 0 0 0 4.107-4.107A4.11 4.11 0 0 0 8 3.896m0 1.442a2.667 2.667 0 0 1 2.668 2.666A2.667 2.667 0 0 1 8 10.672a2.667 2.667 0 0 1-2.668-2.668A2.667 2.667 0 0 1 8 5.338"/></symbol><use xlink:href="#sprite-in" width="16" height="16" y="104.854"/><view id="sprite-in-view" viewBox="0 104.854 16 16"/><symbol id="sprite-loupe" viewBox="0 0 16.707 16.708"><path d="M6.973-.063a7 7 0 0 0-7 7 7 7 0 0 0 7 7 7 7 0 0 0 4.166-1.384l4.154 4.154 1.414-1.414-4.146-4.147a7 7 0 0 0 1.412-4.209 7 7 0 0 0-7-7m0 2a5 5 0 0 1 5 5 5 5 0 0 1-5 5 5 5 0 0 1-5-5 5 5 0 0 1 5-5" color="#000" font-family="sans-serif" font-weight="400" overflow="visible" style="line-height:normal;font-variant-ligatures:normal;font-variant-position:normal;font-variant-caps:normal;font-variant-numeric:normal;font-variant-alternates:normal;font-feature-settings:normal;text-indent:0;text-align:start;text-decoration-line:none;text-decoration-style:solid;text-decoration-color:#000;text-transform:none;text-orientation:mixed;white-space:normal;shape-padding:0;isolation:auto;mix-blend-mode:normal;solid-color:#000;solid-opacity:1"/></symbol><use xlink:href="#sprite-loupe" width="16.707" height="16.708" y="120.854"/><view id="sprite-loupe-view" viewBox="0 120.854 16.707 16.708"/><symbol id="sprite-menu" viewBox="0 0 20 15"><path d="M0 0v3h20V0zm0 6v3h20V6zm0 6v3h20v-3z"/></symbol><use xlink:href="#sprite-menu" width="20" height="15" y="137.562"/><view id="sprite-menu-view" viewBox="0 137.562 20 15"/><symbol id="sprite-next" viewBox="0 0 15 6"><g fill="#6a90a9" data-name="Arrow right 2" transform="translate(-1865 2491)"><path d="M1877.5-2486.207v-3.586l1.793 1.793z"/><path d="m1878-2487.414.586-.586-.586-.585v1.171m-1 2.414v-2.5h-12v-1h12v-2.5l3 3z"/></g></symbol><use xlink:href="#sprite-next" width="15" height="6" y="152.562"/><view id="sprite-next-view" viewBox="0 152.562 15 6"/><symbol id="sprite-plus" viewBox="0 0 15 14.999"><path d="M6.5 15V8.5H0v-2h6.5V0h2v6.5H15v2H8.5V15z"/></symbol><use xlink:href="#sprite-plus" width="15" height="14.999" y="158.562"/><view id="sprite-plus-view" viewBox="0 158.562 15 14.999"/><symbol id="sprite-share" viewBox="0 0 20 15"><path d="M10.012 0h1L20 7.5 11.011 15h-1v-5s-6.5-.6-9.988 5c-.6-10.2 9.988-10 9.988-10z" data-name="Path 64"/></symbol><use xlink:href="#sprite-share" width="20" height="15" y="173.561"/><view id="sprite-share-view" viewBox="0 173.561 20 15"/><symbol style="isolation:isolate" id="sprite-tg" viewBox="0 0 300 300"><path d="M239.95 69.605c-1.757-.025-3.652.396-5.575 1.293L46.289 143.555c-12.305 4.687-12.305 12.304-2.344 15.234l48.633 15.234 111.328-70.898c5.274-2.93 9.96-1.758 6.446 2.344l-90.82 81.445-2.93 49.805c4.1 0 6.445-2.344 9.375-4.688l23.916-22.853 48.74 35.744c8.203 5.273 15.234 2.344 17.578-8.203l32.226-151.172c2.289-10.071-2.216-15.85-8.488-15.942z"/></symbol><use xlink:href="#sprite-tg" width="300" height="300" y="188.561"/><view style="isolation:isolate" id="sprite-tg-view" viewBox="0 188.561 300 300"/><symbol id="sprite-triangle" viewBox="0 0 9 5"><path fill="rgba(116,125,132,0.7)" d="M9 0v.5L4.5 5 0 .5V0Z" data-name="Path 98 9 5"/></symbol><use xlink:href="#sprite-triangle" width="9" height="5" y="488.56100000000004"/><view id="sprite-triangle-view" viewBox="0 488.56100000000004 9 5"/><symbol id="sprite-tw" viewBox="0 0 18.75 15.235"><path d="M5.9 15.236A10.87 10.87 0 0 0 16.842 4.29c0-.167 0-.332-.011-.5a7.8 7.8 0 0 0 1.919-1.991 7.7 7.7 0 0 1-2.21.605A3.86 3.86 0 0 0 18.231.276a7.7 7.7 0 0 1-2.443.934 3.851 3.851 0 0 0-6.556 3.508A10.92 10.92 0 0 1 1.304.699a3.85 3.85 0 0 0 1.191 5.135 3.8 3.8 0 0 1-1.746-.481v.049a3.85 3.85 0 0 0 3.086 3.771 3.84 3.84 0 0 1-1.737.066 3.85 3.85 0 0 0 3.594 2.672 7.72 7.72 0 0 1-4.778 1.65 8 8 0 0 1-.916-.055 10.9 10.9 0 0 0 5.9 1.725"/></symbol><use xlink:href="#sprite-tw" width="18.75" height="15.235" y="493.56100000000004"/><view id="sprite-tw-view" viewBox="0 493.56100000000004 18.75 15.235"/><symbol id="sprite-vk" viewBox="0 0 16.055 9.4"><path d="M13.336 4.609A22 22 0 0 0 15.662.645c.07-.35-.084-.546-.448-.546h-1.835a.67.67 0 0 0-.7.448 16.6 16.6 0 0 1-2.2 3.446c-.388.431-.585.56-.8.56-.173 0-.252-.144-.252-.532v-3.4c0-.476-.056-.616-.448-.616H6.037a.32.32 0 0 0-.364.308c0 .449.686.55.686 1.765v2.508c0 .5-.028.7-.266.7-.63 0-2.129-2.171-2.97-4.637-.168-.5-.35-.644-.827-.644H.461a.44.44 0 0 0-.462.448c0 .49.574 2.76 2.83 5.8a6.96 6.96 0 0 0 5.3 3.152c1.093 0 1.359-.182 1.359-.644V7.192c0-.392.154-.56.378-.56.252 0 .7.081 1.737 1.107 1.233 1.177 1.317 1.667 1.989 1.667h2.053c.21 0 .406-.1.406-.448a4.97 4.97 0 0 0-1.527-2.269c-.378-.5-.995-1.051-1.191-1.3-.28-.294-.2-.462 0-.771"/></symbol><use xlink:href="#sprite-vk" width="16.055" height="9.4" y="508.79600000000005"/><view id="sprite-vk-view" viewBox="0 508.79600000000005 16.055 9.4"/></svg>