<svg width="0" height="0" style="position:absolute"><symbol viewBox="0 0 15 15" id="arrow" xmlns="http://www.w3.org/2000/svg"><path d="M0 10V9l7.5-9L15 9v1h-5v5H5v-5z" data-name="Path 65"/></symbol><symbol id="bell" viewBox="0 0 16.132 18" xmlns="http://www.w3.org/2000/svg"><defs id="bdefs4527"><style id="bstyle4525"/></defs><path id="bPath_83" d="M8.066 0c-.499 0-.862.29-1.068.576-2.862.43-5.066 2.967-4.932 5.969v3.682c-.13.208-.553.884-1.058 1.783a17.429 17.429 0 0 0-.756 1.465c-.096.22-.176.402-.227.67-.025.133-.074.29.026.609.05.16.166.373.37.53.206.155.463.216.645.216H5.79l.031.26s.06.534.358 1.08S7.105 18 8.066 18c.962 0 1.59-.614 1.89-1.16.297-.546.357-1.08.357-1.08l.03-.26h4.723c.183 0 .44-.06.645-.217.205-.156.32-.37.37-.53.099-.318.052-.475.026-.608-.05-.268-.13-.45-.226-.67a17.3 17.3 0 0 0-.756-1.465c-.505-.899-.93-1.575-1.059-1.783V6.5l-.002.045c.135-3.003-2.069-5.54-4.931-5.969C8.927.29 8.566 0 8.066 0zm-.045 2.498l.045.004.045-.004a3.772 3.772 0 0 1 3.955 3.957v4.332l.153.242s.617.989 1.164 1.961c.108.193.167.328.263.51H2.486c.097-.182.156-.317.264-.51a57.646 57.646 0 0 1 1.164-1.96l.152-.243V6.48l-.002-.024a3.774 3.774 0 0 1 3.957-3.957zM7 16.199h2.13c-.029.076-.01.081-.054.16-.193.355-.44.641-1.01.641-.57 0-.818-.286-1.011-.64-.044-.08-.025-.085-.055-.16z" style="line-height:normal;font-variant-ligatures:normal;font-variant-position:normal;font-variant-caps:normal;font-variant-numeric:normal;font-variant-alternates:normal;font-feature-settings:normal;text-indent:0;text-align:start;text-decoration-line:none;text-decoration-style:solid;text-decoration-color:#000;text-transform:none;text-orientation:mixed;white-space:normal;shape-padding:0;isolation:auto;mix-blend-mode:normal;solid-color:#000;solid-opacity:1" color="#000" font-style="normal" font-variant="normal" font-weight="400" font-stretch="normal" font-size="medium" font-family="sans-serif" text-decoration="none" letter-spacing="normal" word-spacing="normal" writing-mode="lr-tb" direction="ltr" dominant-baseline="auto" baseline-shift="baseline" text-anchor="start" clip-rule="nonzero" display="inline" overflow="visible" visibility="visible" opacity="1" color-interpolation="sRGB" color-interpolation-filters="linearRGB" vector-effect="none" fill-opacity="1" fill-rule="nonzero" stroke="none" stroke-width="2" stroke-linecap="butt" stroke-linejoin="miter" stroke-miterlimit="4" stroke-dasharray="none" stroke-dashoffset="0" stroke-opacity="1" color-rendering="auto" image-rendering="auto" shape-rendering="auto" text-rendering="auto"/></symbol><symbol viewBox="0 0 15 15" id="close" xmlns="http://www.w3.org/2000/svg"><path d="M15 1.5L13.5 0l-6 6-6-6L0 1.5l6 6-6 6L1.5 15l6-6 6 6 1.5-1.5-6-6z"/></symbol><symbol viewBox="0 0 15 15" id="comments" xmlns="http://www.w3.org/2000/svg"><path d="M0 0h15v15h-1l-5-3H0z" data-name="Path 67"/></symbol><symbol id="dots" viewBox="0 0 20 5" xmlns="http://www.w3.org/2000/svg"><defs id="edefs4"><style id="estyle2"/></defs><path id="eRectangle_143" d="M2.5 0A2.495 2.495 0 0 0 0 2.5C0 3.885 1.115 5 2.5 5S5 3.885 5 2.5 3.885 0 2.5 0zM10 0a2.495 2.495 0 0 0-2.5 2.5C7.5 3.885 8.615 5 10 5s2.5-1.115 2.5-2.5S11.385 0 10 0zm7.5 0A2.495 2.495 0 0 0 15 2.5C15 3.885 16.115 5 17.5 5S20 3.885 20 2.5 18.885 0 17.5 0z" fill-opacity="1"/></symbol><symbol viewBox="0 0 8.764 16.854" id="fb" xmlns="http://www.w3.org/2000/svg"><path d="M5.688 16.854V9.166h2.584l.387-3H5.688V4.253c0-.867.241-1.459 1.487-1.459h1.589V.114a21.293 21.293 0 0 0-2.315-.118A3.612 3.612 0 0 0 2.59 3.957v2.21H-.001v3H2.59v7.688z"/></symbol><symbol viewBox="0 0 16 16" id="in" xmlns="http://www.w3.org/2000/svg"><path d="M8 0C5.827 0 5.554.01 4.7.049a5.87 5.87 0 0 0-1.942.37 3.922 3.922 0 0 0-1.416.925A3.922 3.922 0 0 0 .418 2.76 5.873 5.873 0 0 0 .047 4.7c-.04.853-.049 1.127-.049 3.301 0 2.174.01 2.446.049 3.3a5.873 5.873 0 0 0 .371 1.942 3.922 3.922 0 0 0 .924 1.416 3.922 3.922 0 0 0 1.416.924 5.871 5.871 0 0 0 1.941.371c.853.04 1.127.049 3.301.049 2.174 0 2.446-.01 3.3-.049a5.871 5.871 0 0 0 1.942-.371 3.923 3.923 0 0 0 1.416-.924 3.922 3.922 0 0 0 .924-1.416 5.872 5.872 0 0 0 .371-1.941c.04-.853.049-1.127.049-3.301 0-2.174-.01-2.446-.049-3.3a5.872 5.872 0 0 0-.371-1.942 3.922 3.922 0 0 0-.924-1.416A3.922 3.922 0 0 0 13.242.42a5.87 5.87 0 0 0-1.941-.371C10.446.009 10.173 0 8 0zm0 1.441c2.136 0 2.388.008 3.232.047a4.426 4.426 0 0 1 1.487.276 2.478 2.478 0 0 1 .92.6 2.479 2.479 0 0 1 .6.92 4.426 4.426 0 0 1 .275 1.486c.038.844.047 1.099.047 3.232s-.008 2.388-.047 3.232a4.427 4.427 0 0 1-.276 1.487 2.479 2.479 0 0 1-.6.92 2.478 2.478 0 0 1-.92.6 4.426 4.426 0 0 1-1.486.275c-.843.038-1.099.046-3.232.046s-2.388-.007-3.232-.046a4.426 4.426 0 0 1-1.487-.276 2.478 2.478 0 0 1-.92-.6 2.479 2.479 0 0 1-.6-.92 4.427 4.427 0 0 1-.275-1.486c-.038-.844-.047-1.099-.047-3.232s.008-2.388.047-3.232a4.427 4.427 0 0 1 .276-1.487 2.479 2.479 0 0 1 .6-.92 2.478 2.478 0 0 1 .92-.6 4.424 4.424 0 0 1 1.486-.275C5.612 1.45 5.867 1.441 8 1.441zm4.271 1.329a.96.96 0 0 0-.96.96.96.96 0 0 0 .96.96.96.96 0 0 0 .96-.96.96.96 0 0 0-.96-.96zM8 3.896a4.108 4.108 0 0 0-4.107 4.108A4.108 4.108 0 0 0 8 12.11a4.108 4.108 0 0 0 4.107-4.107A4.108 4.108 0 0 0 8 3.896zm0 1.442a2.667 2.667 0 0 1 2.668 2.666A2.667 2.667 0 0 1 8 10.672a2.667 2.667 0 0 1-2.668-2.668A2.667 2.667 0 0 1 8 5.338z"/></symbol><symbol id="loupe" viewBox="0 0 16.707 16.708" xmlns="http://www.w3.org/2000/svg"><defs id="hdefs4"><style id="hstyle2"/></defs><path id="hLine_3" d="M6.973-.063a7 7 0 0 0-7 7 7 7 0 0 0 7 7 7 7 0 0 0 4.166-1.384l4.154 4.154 1.414-1.414-4.146-4.147a7 7 0 0 0 1.412-4.209 7 7 0 0 0-7-7zm0 2a5 5 0 0 1 5 5 5 5 0 0 1-5 5 5 5 0 0 1-5-5 5 5 0 0 1 5-5z" style="line-height:normal;font-variant-ligatures:normal;font-variant-position:normal;font-variant-caps:normal;font-variant-numeric:normal;font-variant-alternates:normal;font-feature-settings:normal;text-indent:0;text-align:start;text-decoration-line:none;text-decoration-style:solid;text-decoration-color:#000;text-transform:none;text-orientation:mixed;white-space:normal;shape-padding:0;isolation:auto;mix-blend-mode:normal;solid-color:#000;solid-opacity:1" color="#000" font-style="normal" font-variant="normal" font-weight="400" font-stretch="normal" font-size="medium" font-family="sans-serif" text-decoration="none" letter-spacing="normal" word-spacing="normal" writing-mode="lr-tb" direction="ltr" dominant-baseline="auto" baseline-shift="baseline" text-anchor="start" clip-rule="nonzero" display="inline" overflow="visible" visibility="visible" opacity="1" color-interpolation="sRGB" color-interpolation-filters="linearRGB" vector-effect="none" fill-opacity="1" fill-rule="nonzero" stroke="none" stroke-width="2" stroke-linecap="butt" stroke-linejoin="miter" stroke-miterlimit="4" stroke-dasharray="none" stroke-dashoffset="0" stroke-opacity="1" color-rendering="auto" image-rendering="auto" shape-rendering="auto" text-rendering="auto"/></symbol><symbol viewBox="0 0 20 15" id="menu" xmlns="http://www.w3.org/2000/svg"><path d="M0 0v3h20V0H0zm0 6v3h20V6H0zm0 6v3h20v-3H0z"/></symbol><symbol viewBox="0 0 15 14.999" id="plus" xmlns="http://www.w3.org/2000/svg"><path d="M6.5 15V8.5H0v-2h6.5V0h2v6.5H15v2H8.5V15z"/></symbol><symbol viewBox="0 0 20 15" id="share" xmlns="http://www.w3.org/2000/svg"><path d="M10.012 0h1L20 7.5 11.011 15h-1v-5s-6.5-.6-9.988 5c-.6-10.2 9.988-10 9.988-10z" data-name="Path 64"/></symbol><symbol style="isolation:isolate" viewBox="0 0 300 300" id="tg" xmlns="http://www.w3.org/2000/svg"><path d="M239.95 69.605c-1.757-.025-3.652.396-5.575 1.293L46.289 143.555c-12.305 4.687-12.305 12.304-2.344 15.234l48.633 15.234 111.328-70.898c5.274-2.93 9.96-1.758 6.446 2.344l-90.82 81.445-2.93 49.805c4.1 0 6.445-2.344 9.375-4.688l23.916-22.853 48.74 35.744c8.203 5.273 15.234 2.344 17.578-8.203l32.226-151.172c2.289-10.071-2.216-15.85-8.488-15.942z"/></symbol><symbol viewBox="0 0 18.75 15.235" id="tw" xmlns="http://www.w3.org/2000/svg"><path d="M5.9 15.236A10.871 10.871 0 0 0 16.842 4.29c0-.167 0-.332-.011-.5a7.827 7.827 0 0 0 1.919-1.991 7.678 7.678 0 0 1-2.21.605A3.86 3.86 0 0 0 18.231.276a7.709 7.709 0 0 1-2.443.934 3.851 3.851 0 0 0-6.556 3.508A10.922 10.922 0 0 1 1.304.699a3.85 3.85 0 0 0 1.191 5.135 3.818 3.818 0 0 1-1.746-.481v.049a3.848 3.848 0 0 0 3.086 3.771 3.841 3.841 0 0 1-1.737.066 3.851 3.851 0 0 0 3.594 2.672 7.719 7.719 0 0 1-4.778 1.65 7.83 7.83 0 0 1-.916-.055 10.891 10.891 0 0 0 5.9 1.725"/></symbol><symbol viewBox="0 0 16.055 9.4" id="vk" xmlns="http://www.w3.org/2000/svg"><path d="M13.336 4.609A21.888 21.888 0 0 0 15.662.645c.07-.35-.084-.546-.448-.546h-1.835a.67.67 0 0 0-.7.448 16.625 16.625 0 0 1-2.2 3.446c-.388.431-.585.56-.8.56-.173 0-.252-.144-.252-.532v-3.4c0-.476-.056-.616-.448-.616H6.037a.322.322 0 0 0-.364.308c0 .449.686.55.686 1.765v2.508c0 .5-.028.7-.266.7-.63 0-2.129-2.171-2.97-4.637-.168-.5-.35-.644-.827-.644H.461a.438.438 0 0 0-.462.448c0 .49.574 2.76 2.83 5.8a6.958 6.958 0 0 0 5.3 3.152c1.093 0 1.359-.182 1.359-.644V7.192c0-.392.154-.56.378-.56.252 0 .7.081 1.737 1.107 1.233 1.177 1.317 1.667 1.989 1.667h2.053c.21 0 .406-.1.406-.448a4.971 4.971 0 0 0-1.527-2.269c-.378-.5-.995-1.051-1.191-1.3-.28-.294-.2-.462 0-.771"/></symbol></svg>